HIERARCHY
ROOT Hips
{
	OFFSET 0.000000 89.005402 0.000000
	CHANNELS 6 Xposition Yposition Zposition Xrotation Yrotation Zrotation
	JOINT Spine
	{
		OFFSET 0.116900 10.681000 0.373400
		CHANNELS 3 Xrotation Yrotation Zrotation
		JOINT Spine1
		{
			OFFSET 0.000000 13.840401 0.053500
			CHANNELS 3 Xrotation Yrotation Zrotation
			JOINT Spine2
			{
				OFFSET 0.000000 14.712700 -0.366200
				CHANNELS 3 Xrotation Yrotation Zrotation
				JOINT Neck
				{
					OFFSET 0.000000 35.415497 -3.314200
					CHANNELS 3 Xrotation Yrotation Zrotation
					JOINT Head
					{
						OFFSET 0.000000 16.899200 1.218300
						CHANNELS 3 Xrotation Yrotation Zrotation
						JOINT HeadTop_End
						{
							OFFSET 0.000000 22.206207 2.192500
							CHANNELS 3 Xrotation Yrotation Zrotation
							End Site
							{
								OFFSET 0.000000 22.314178 0.000000
							}
						}
					}
				}
				JOINT LeftShoulder
				{
					OFFSET 12.896400 26.716293 -4.548400
					CHANNELS 3 Xrotation Yrotation Zrotation
					JOINT LeftArm
					{
						OFFSET 19.027000 -4.857010 -1.718400
						CHANNELS 3 Xrotation Yrotation Zrotation
						JOINT LeftForeArm
						{
							OFFSET 24.179897 0.000000 0.000000
							CHANNELS 3 Xrotation Yrotation Zrotation
							JOINT LeftHand
							{
								OFFSET 27.156403 0.000000 0.000000
								CHANNELS 3 Xrotation Yrotation Zrotation
								JOINT LeftHandIndex1
								{
									OFFSET 16.441200 0.000000 0.000000
									CHANNELS 3 Xrotation Yrotation Zrotation
									JOINT LeftHandIndex2
									{
										OFFSET 4.821899 0.000000 0.000000
										CHANNELS 3 Xrotation Yrotation Zrotation
										JOINT LeftHandIndex3
										{
											OFFSET 6.386497 0.000000 0.000000
											CHANNELS 3 Xrotation Yrotation Zrotation
											JOINT LeftHandIndex4
											{
												OFFSET 5.188988 0.000000 0.000000
												CHANNELS 3 Xrotation Yrotation Zrotation
												End Site
												{
													OFFSET -0.178703 5.185913 0.000177
												}
											}
										}
									}
								}
								JOINT LeftHandThumb1
								{
									OFFSET 6.534897 -5.032593 5.900300
									CHANNELS 3 Xrotation Yrotation Zrotation
									JOINT LeftHandThumb2
									{
										OFFSET 3.818176 -2.204422 2.204423
										CHANNELS 3 Xrotation Yrotation Zrotation
										JOINT LeftHandThumb3
										{
											OFFSET 3.252098 -1.877594 1.877601
											CHANNELS 3 Xrotation Yrotation Zrotation
											JOINT LeftHandThumb4
											{
												OFFSET 5.251778 -3.032120 3.032117
												CHANNELS 3 Xrotation Yrotation Zrotation
												End Site
												{
													OFFSET 0.000023 6.780014 0.000000
												}
											}
										}
									}
								}
							}
						}
					}
				}
				JOINT RightShoulder
				{
					OFFSET -12.896300 26.716293 -4.548400
					CHANNELS 3 Xrotation Yrotation Zrotation
					JOINT RightArm
					{
						OFFSET -19.027000 -4.857010 -1.718400
						CHANNELS 3 Xrotation Yrotation Zrotation
						JOINT RightForeArm
						{
							OFFSET -24.179897 0.000000 0.000000
							CHANNELS 3 Xrotation Yrotation Zrotation
							JOINT RightHand
							{
								OFFSET -27.156403 0.000000 0.000000
								CHANNELS 3 Xrotation Yrotation Zrotation
								JOINT RightHandThumb1
								{
									OFFSET -6.591202 -4.852203 5.988100
									CHANNELS 3 Xrotation Yrotation Zrotation
									JOINT RightHandThumb2
									{
										OFFSET -3.818176 -2.204422 2.204423
										CHANNELS 3 Xrotation Yrotation Zrotation
										JOINT RightHandThumb3
										{
											OFFSET -3.252098 -1.877594 1.877601
											CHANNELS 3 Xrotation Yrotation Zrotation
											JOINT RightHandThumb4
											{
												OFFSET -5.251778 -3.032120 3.032117
												CHANNELS 3 Xrotation Yrotation Zrotation
												End Site
												{
													OFFSET -0.000023 6.780014 0.000000
												}
											}
										}
									}
								}
								JOINT RightHandIndex1
								{
									OFFSET -16.029404 0.000000 0.000000
									CHANNELS 3 Xrotation Yrotation Zrotation
									JOINT RightHandIndex2
									{
										OFFSET -5.213303 0.000000 0.000000
										CHANNELS 3 Xrotation Yrotation Zrotation
										JOINT RightHandIndex3
										{
											OFFSET -6.386528 0.000000 0.000000
											CHANNELS 3 Xrotation Yrotation Zrotation
											JOINT RightHandIndex4
											{
												OFFSET -5.189026 0.000000 0.000000
												CHANNELS 3 Xrotation Yrotation Zrotation
												End Site
												{
													OFFSET 0.236702 5.183624 0.001972
												}
											}
										}
									}
								}
							}
						}
					}
				}
			}
		}
	}
	JOINT LeftUpLeg
	{
		OFFSET 14.073000 -7.904099 -1.463000
		CHANNELS 3 Xrotation Yrotation Zrotation
		JOINT LeftLeg
		{
			OFFSET -0.109806 -34.073280 4.093200
			CHANNELS 3 Xrotation Yrotation Zrotation
			JOINT LeftFoot
			{
				OFFSET 0.109806 -29.899420 -6.319000
				CHANNELS 3 Xrotation Yrotation Zrotation
				JOINT LeftToeBase
				{
					OFFSET 1.551100 -14.988700 20.535801
					CHANNELS 3 Xrotation Yrotation Zrotation
					JOINT LeftToe_End
					{
						OFFSET 0.221200 0.570800 13.248301
						CHANNELS 3 Xrotation Yrotation Zrotation
						End Site
						{
							OFFSET 0.000000 13.262435 0.000000
						}
					}
				}
			}
		}
	}
	JOINT RightUpLeg
	{
		OFFSET -13.839300 -7.904099 -1.463000
		CHANNELS 3 Xrotation Yrotation Zrotation
		JOINT RightLeg
		{
			OFFSET 0.109694 -34.073219 4.093300
			CHANNELS 3 Xrotation Yrotation Zrotation
			JOINT RightFoot
			{
				OFFSET -0.109694 -29.899384 -6.319200
				CHANNELS 3 Xrotation Yrotation Zrotation
				JOINT RightToeBase
				{
					OFFSET -1.551100 -14.988700 20.535801
					CHANNELS 3 Xrotation Yrotation Zrotation
					JOINT RightToe_End
					{
						OFFSET -0.221200 0.570900 13.248299
						CHANNELS 3 Xrotation Yrotation Zrotation
						End Site
						{
							OFFSET 0.000000 13.262440 0.000000
						}
					}
				}
			}
		}
	}
}
MOTION
Frames: 9
Frame Time: 0.033333
3.029013 41.655472 -2.015055 0.817406 -25.141585 9.565205 2.866139 -0.407206 -6.185275 2.227984 -1.286565 -3.027762 2.233816 -1.285672 -3.025125 -3.962410 3.288533 2.946571 -0.115029 19.920373 2.691782 -0.000000 0.000000 0.000000 0.452717 1.693825 1.739610 -1.798692 -11.700857 -58.798667 0.000167 -83.306738 0.000158 -56.402924 17.147793 27.573303 1.016532 3.605841 -31.478706 1.016531 3.605846 -31.478703 0.193858 1.625533 -13.600724 0.000001 0.000000 0.000001 -1.540054 3.690179 6.142349 3.939055 7.948715 0.746809 -0.579465 1.575000 2.538715 -0.000000 -0.000004 -0.000000 5.136811 17.382618 7.477151 14.034097 22.826738 31.042284 -0.000002 121.743956 -0.000007 2.429555 -25.805969 9.048793 -1.849245 -3.581789 -6.586139 4.637184 -8.634119 -0.225402 -1.273750 0.137306 -2.094871 0.000007 0.000000 -0.000001 0.013962 -0.441467 3.625096 0.176781 -1.560965 12.920988 0.044315 -0.785453 6.459299 -0.000001 0.000004 -0.000004 -82.295993 -11.879846 48.676740 72.302279 6.605130 -5.795345 29.204677 -1.419536 -11.124449 -0.000646 0.000009 -0.000000 -0.000000 0.000001 -0.000000 -6.098727 -5.964311 -19.493018 107.459933 8.299456 -0.980647 15.885560 1.779120 15.737567 50.314281 -3.186156 -8.211623 -0.000000 -0.000001 -0.000001 
3.013140 41.683197 -1.991597 0.877475 -25.072318 9.581139 2.864660 -0.428804 -6.200301 2.223864 -1.290204 -3.038300 2.230375 -1.288403 -3.035256 -3.886562 3.294390 2.964091 -0.011392 19.978525 2.670441 -0.000001 -0.000000 -0.000000 0.506470 1.585641 1.768910 -1.905210 -11.648052 -58.840604 -0.000006 -83.445999 -0.000023 -56.101606 17.119297 27.700884 1.016533 3.605842 -31.478706 1.016530 3.605847 -31.478706 0.193862 1.625531 -13.600723 0.000002 -0.000000 -0.000000 -1.540054 3.690180 6.142346 3.939055 7.948710 0.746808 -0.579464 1.574998 2.538715 0.000000 -0.000001 -0.000000 5.163597 17.463967 7.466052 14.080605 22.520693 31.066822 0.000025 121.886638 -0.000033 2.595693 -26.024054 9.128058 -1.849244 -3.581791 -6.586146 4.637190 -8.634117 -0.225404 -1.273754 0.137309 -2.094872 0.000003 -0.000001 0.000002 0.013961 -0.441483 3.625080 0.176761 -1.560944 12.920990 0.044326 -0.785472 6.459296 -0.000001 -0.000005 -0.000002 -82.283958 -11.959754 48.609104 72.301828 6.655113 -5.886972 29.205110 -1.408890 -11.056362 -0.000636 0.000001 0.000005 0.000000 -0.000000 -0.000000 -6.199918 -6.002107 -19.456181 107.656001 7.994369 -0.961810 15.584386 1.730839 15.554788 50.293333 -3.299437 -8.432963 0.000001 0.000003 0.000000 
2.994496 41.707954 -1.985829 0.922797 -25.034482 9.601916 2.878249 -0.451248 -6.217670 2.230087 -1.293046 -3.049933 2.235820 -1.290962 -3.046374 -3.822534 3.316911 2.955110 -0.029435 20.063553 2.665990 -0.000000 0.000000 -0.000000 0.530836 1.548090 1.698934 -2.011592 -11.548421 -58.783395 -0.000311 -83.644102 -0.000350 -55.910955 17.114431 27.736951 1.016534 3.605843 -31.478706 1.016530 3.605842 -31.478706 0.193861 1.625531 -13.600723 0.000001 -0.000000 0.000001 -1.540054 3.690177 6.142348 3.939055 7.948709 0.746809 -0.579464 1.574994 2.538714 -0.000000 -0.000004 -0.000000 5.178688 17.514111 7.436939 14.117861 22.346437 31.052140 -0.000002 121.993107 -0.000001 3.032394 -26.098942 9.170772 -1.849245 -3.581788 -6.586141 4.637190 -8.634116 -0.225401 -1.273751 0.137307 -2.094875 0.000004 -0.000001 0.000002 0.013983 -0.441489 3.625084 0.176763 -1.560957 12.921001 0.044327 -0.785454 6.459294 0.000002 -0.000002 0.000002 -82.218245 -12.035680 48.562648 72.278722 6.717153 -5.975494 29.216045 -1.411577 -11.042573 -0.000639 0.000004 -0.000003 -0.000000 0.000001 0.000000 -6.269436 -6.045259 -19.420740 107.797911 7.717433 -0.962440 15.365518 1.703817 15.445867 50.238312 -3.375119 -8.636856 0.000001 0.000000 0.000000 
2.969172 41.729477 -1.996336 0.959381 -25.034332 9.639568 2.895231 -0.473645 -6.241967 2.242118 -1.294393 -3.067452 2.247329 -1.293198 -3.063674 -3.763391 3.344352 2.940333 -0.125245 20.158055 2.697602 -0.000000 -0.000000 0.000000 0.533403 1.559038 1.582765 -2.109733 -11.376567 -58.705831 -0.000302 -83.880221 -0.000327 -55.673927 17.173959 27.722232 1.016532 3.605841 -31.478709 1.016530 3.605845 -31.478703 0.193866 1.625532 -13.600723 0.000000 -0.000000 -0.000000 -1.540054 3.690178 6.142349 3.939054 7.948710 0.746808 -0.579464 1.574999 2.538715 -0.000000 -0.000003 -0.000000 5.188730 17.547039 7.437168 14.085628 22.272094 30.964297 0.000030 121.993066 -0.000032 3.434595 -25.738835 9.360355 -1.849247 -3.581789 -6.586141 4.637185 -8.634117 -0.225401 -1.273749 0.137304 -2.094871 0.000003 0.000002 0.000002 0.013968 -0.441480 3.625097 0.176775 -1.560959 12.921002 0.044326 -0.785471 6.459293 -0.000000 -0.000001 -0.000000 -82.094830 -12.090078 48.551928 72.226696 6.781172 -6.062255 29.232701 -1.430658 -11.096358 -0.000630 0.000002 -0.000003 0.000000 0.000001 0.000000 -6.324916 -6.062251 -19.397640 107.880386 7.532217 -0.968640 15.246171 1.693073 15.408082 50.198448 -3.402275 -8.760870 -0.000000 0.000002 -0.000000 
2.937957 41.746979 -2.014636 0.986210 -25.046886 9.682628 2.909369 -0.487781 -6.271488 2.254016 -1.294922 -3.087603 2.258681 -1.295225 -3.083954 -3.715550 3.362797 2.953030 -0.217475 20.257248 2.713154 -0.000000 -0.000000 0.000000 0.533447 1.569948 1.508527 -2.186856 -11.180682 -58.684412 0.000130 -84.079171 0.000093 -55.397567 17.214233 27.650752 1.016533 3.605836 -31.478706 1.016530 3.605846 -31.478709 0.193862 1.625533 -13.600723 -0.000001 -0.000000 -0.000001 -1.540053 3.690171 6.142347 3.939054 7.948717 0.746808 -0.579464 1.574998 2.538715 0.000000 -0.000000 -0.000000 5.196401 17.586086 7.510233 14.008887 22.211273 30.786869 -0.000007 121.925680 -0.000005 3.560270 -25.109836 9.684629 -1.849246 -3.581790 -6.586145 4.637193 -8.634116 -0.225402 -1.273750 0.137305 -2.094870 0.000003 0.000000 0.000000 0.013969 -0.441472 3.625092 0.176753 -1.560965 12.921003 0.044336 -0.785450 6.459297 -0.000001 -0.000002 0.000002 -81.941281 -12.129429 48.567706 72.156960 6.834873 -6.155973 29.252689 -1.458012 -11.187421 -0.000651 0.000005 -0.000002 0.000000 -0.000001 0.000000 -6.369829 -6.052693 -19.378119 107.912672 7.470397 -0.967610 15.196720 1.688159 15.418916 50.223638 -3.391720 -8.769220 -0.000000 0.000003 0.000000 
2.904945 41.760315 -2.032182 0.993142 -25.051501 9.717211 2.924029 -0.493062 -6.295976 2.266127 -1.295400 -3.102835 2.270280 -1.297257 -3.099465 -3.688601 3.373971 2.977122 -0.271900 20.352213 2.673155 -0.000000 0.000000 0.000000 0.539273 1.564965 1.464616 -2.237664 -11.038679 -58.684589 0.000053 -84.201425 0.000053 -55.133915 17.187553 27.555994 1.016533 3.605841 -31.478706 1.016529 3.605843 -31.478706 0.193862 1.625531 -13.600723 -0.000001 -0.000000 -0.000000 -1.540054 3.690178 6.142347 3.939055 7.948716 0.746808 -0.579464 1.574996 2.538715 0.000000 -0.000002 0.000000 5.204293 17.625114 7.617474 13.938716 22.162060 30.589327 -0.000004 121.857801 -0.000002 3.488101 -24.602724 9.972079 -1.849241 -3.581790 -6.586141 4.637185 -8.634117 -0.225403 -1.273749 0.137303 -2.094871 -0.000001 0.000000 -0.000000 0.013973 -0.441477 3.625044 0.176763 -1.560935 12.920980 0.044342 -0.785478 6.459273 0.000001 0.000003 -0.000002 -81.782657 -12.162934 48.589351 72.086602 6.873449 -6.253474 29.274758 -1.482292 -11.274136 -0.000663 0.000002 0.000008 -0.000000 -0.000000 0.000000 -6.390272 -6.031886 -19.359456 107.912857 7.521446 -0.956563 15.169550 1.678837 15.458047 50.324991 -3.359066 -8.676591 -0.000000 0.000004 0.000001 
2.872765 41.770706 -2.045331 0.974516 -25.050064 9.738801 2.939527 -0.498615 -6.304797 2.278763 -1.295594 -3.107694 2.282349 -1.299427 -3.104586 -3.675495 3.392497 2.965438 -0.303794 20.435433 2.592434 0.000000 0.000000 0.000000 0.548932 1.554979 1.384094 -2.264952 -10.926565 -58.659099 -0.000186 -84.270007 -0.000206 -54.885976 17.136632 27.440934 1.016533 3.605841 -31.478706 1.016531 3.605842 -31.478706 0.193859 1.625532 -13.600723 0.000002 -0.000000 -0.000000 -1.540054 3.690177 6.142346 3.939054 7.948714 0.746809 -0.579464 1.575000 2.538715 0.000000 -0.000002 0.000000 5.207635 17.644293 7.669135 13.890755 22.190366 30.488496 -0.000007 121.789772 -0.000001 3.430757 -24.361157 10.153495 -1.849248 -3.581787 -6.586142 4.637187 -8.634118 -0.225400 -1.273746 0.137304 -2.094869 0.000005 -0.000001 0.000000 0.013964 -0.441460 3.625051 0.176756 -1.560959 12.920979 0.044321 -0.785465 6.459281 -0.000000 0.000001 -0.000003 -81.631976 -12.189955 48.601099 72.025315 6.898865 -6.332957 29.296570 -1.498873 -11.341513 -0.000645 0.000010 0.000003 -0.000000 0.000000 0.000000 -6.377314 -6.016440 -19.342030 107.894798 7.629908 -0.942310 15.143101 1.666245 15.504673 50.468760 -3.316327 -8.532131 0.000000 0.000002 -0.000000 
2.841211 41.780602 -2.053419 0.943148 -25.047518 9.749207 2.947269 -0.513302 -6.293005 2.286136 -1.296046 -3.100967 2.289219 -1.301899 -3.097965 -3.664898 3.425358 2.904879 -0.336604 20.514740 2.492551 -0.000000 0.000000 -0.000000 0.561431 1.549778 1.242268 -2.262494 -10.752990 -58.623999 -0.000123 -84.326041 -0.000106 -54.603418 17.118495 27.264121 1.016532 3.605837 -31.478703 1.016532 3.605848 -31.478703 0.193864 1.625532 -13.600722 0.000001 0.000000 -0.000000 -1.540054 3.690177 6.142349 3.939054 7.948709 0.746808 -0.579465 1.574994 2.538715 0.000000 0.000001 -0.000000 5.205938 17.642788 7.616640 13.856652 22.325754 30.529757 0.000004 121.689464 -0.000002 3.465869 -24.253109 10.288480 -1.849246 -3.581789 -6.586136 4.637188 -8.634114 -0.225399 -1.273750 0.137306 -2.094869 0.000000 0.000001 0.000001 0.013970 -0.441483 3.625186 0.176774 -1.560950 12.921019 0.044322 -0.785459 6.459315 0.000000 -0.000003 -0.000000 -81.497086 -12.212499 48.601799 71.974355 6.916641 -6.379278 29.315363 -1.508962 -11.400346 -0.000651 0.000004 -0.000003 0.000000 -0.000001 -0.000000 -6.342727 -6.009880 -19.319156 107.863304 7.728789 -0.930120 15.127078 1.655666 15.545497 50.599626 -3.272973 -8.395389 -0.000000 0.000000 0.000000 
2.809981 41.791458 -2.055333 0.925424 -25.045026 9.753546 2.939322 -0.533531 -6.261132 2.280863 -1.299362 -3.080198 2.283488 -1.304788 -3.077064 -3.656381 3.466737 2.816282 -0.387517 20.593341 2.384495 0.000000 0.000000 -0.000000 0.571680 1.557496 1.036758 -2.220105 -10.522787 -58.575907 0.000334 -84.393776 0.000318 -54.297272 17.134049 27.045218 1.016534 3.605838 -31.478703 1.016533 3.605842 -31.478706 0.193862 1.625532 -13.600723 0.000003 -0.000000 -0.000000 -1.540053 3.690179 6.142348 3.939054 7.948716 0.746808 -0.579464 1.575003 2.538715 0.000000 -0.000002 -0.000000 5.203712 17.639397 7.490142 13.839760 22.503902 30.660371 0.000001 121.564417 0.000002 3.535624 -24.128371 10.443271 -1.849250 -3.581786 -6.586142 4.637189 -8.634117 -0.225402 -1.273752 0.137303 -2.094871 0.000004 0.000001 -0.000001 0.013972 -0.441492 3.625300 0.176776 -1.560951 12.921077 0.044312 -0.785466 6.459334 -0.000002 -0.000001 -0.000000 -81.384907 -12.244653 48.598739 71.934323 6.933783 -6.400781 29.328689 -1.518243 -11.466238 -0.000630 0.000007 0.000002 -0.000000 0.000000 0.000000 -6.314999 -6.008947 -19.277166 107.821025 7.774320 -0.922699 15.136375 1.650769 15.575017 50.681353 -3.238501 -8.301704 -0.000000 0.000002 -0.000000 
